# xmcd
#
# Track frame offsets:
#	150
#	26337
#	133502
#	165028
#	179873
#	207816
#
# Disc length: 3019 seconds
#
# Revision: 1
# Processed by: cddbd v1.5.1PL2 Copyright (c) Steve Scherf et al.
# Submitted via: EasyCDDAExtractor 9.0.0.1
#
DISCID=450bc906
DTITLE=Black Sabbath - Sports Arena Toledo 24-02-84 Source 2 Disc 2
DYEAR=1984
DGENRE=Hard Rock
TTITLE0=Stonehenge - Black Sabbath
TTITLE1=The Dark - Zero The Hero - Heaven And Hell - Guitar Solo - Nicholls - 
TTITLE1=Iommi instrumental - Orchid - Guitar Solo 2 
TTITLE2=Iron Man 
TTITLE3=Children Of The Grave [Song During Bridge] 
TTITLE4=Smoke On The Water 
TTITLE5=Paranoid - Heaven And Hell Reprise
EXTD=
EXTT0=
EXTT1=
EXTT2=
EXTT3=
EXTT4=
EXTT5=
PLAYORDER=
